<?xml version="1.0" encoding="utf-8"?>
<!-- Generator: Adobe Illustrator 17.0.0, SVG Export Plug-In . SVG Version: 6.00 Build 0)  -->
<!DOCTYPE svg PUBLIC "-//W3C//DTD SVG 1.1//EN" "http://www.w3.org/Graphics/SVG/1.1/DTD/svg11.dtd">
<svg version="1.1" id="Layer_1" xmlns="http://www.w3.org/2000/svg" xmlns:xlink="http://www.w3.org/1999/xlink" x="0px" y="0px"
	 width="283.465px" height="283.464px" viewBox="0 0 283.465 283.464" enable-background="new 0 0 283.465 283.464"
	 xml:space="preserve">
<g id="Facebook" display="none">
	<path display="inline" fill="#FFFFFF" d="M82.732,100.532h27V88.283v-12v-2.001c0-11.55,0.298-29.4,8.698-40.449
		c8.85-11.702,21-19.65,41.901-19.65c34.048,0,48.4,4.849,48.4,4.849l-6.75,40.001c0,0-11.25-3.251-21.75-3.251
		s-19.9,3.75-19.9,14.25v4.25v14.001v12.249h43.048l-3,39.05h-40.048v135.7h-50.6v-135.7h-27v-39.05H82.732z"/>
</g>
<g id="Twitter" display="none">
	<path display="inline" fill="#FFFFFF" d="M270.232,67.508c-9.161,4.063-19.007,6.809-29.34,8.044
		c10.546-6.322,18.646-16.333,22.461-28.263c-9.871,5.855-20.804,10.106-32.44,12.396c-9.318-9.928-22.595-16.131-37.288-16.131
		c-28.212,0-51.085,22.872-51.085,51.084c0,4.003,0.451,7.903,1.322,11.642c-42.456-2.131-80.1-22.468-105.295-53.376
		c-4.397,7.545-6.917,16.32-6.917,25.683c0,17.724,9.018,33.359,22.726,42.521c-8.374-0.266-16.251-2.564-23.138-6.391
		c-0.005,0.214-0.005,0.427-0.005,0.643c0,24.751,17.609,45.398,40.978,50.092c-4.286,1.167-8.799,1.792-13.458,1.792
		c-3.292,0-6.492-0.321-9.612-0.917c6.501,20.295,25.368,35.066,47.721,35.478c-17.483,13.702-39.51,21.868-63.445,21.868
		c-4.124,0-8.189-0.241-12.186-0.715c22.607,14.494,49.46,22.954,78.309,22.954c93.965,0,145.349-77.844,145.349-145.351
		c0-2.214-0.05-4.417-0.148-6.609C254.724,86.75,263.384,77.752,270.232,67.508z"/>
</g>
<g id="YouTube">
	<g>
		<g>
			<path fill="#FFFFFF" d="M101.245,167.207H60.858v12.366h13.614v72.832h13.16v-72.831h13.613V167.207z M122.753,237.262
				c-1.095,1.376-2.3,2.502-3.612,3.384c-1.312,0.882-2.397,1.322-3.26,1.322c-1.095,0-1.889-0.332-2.378-1.001
				c-0.489-0.663-0.734-1.742-0.734-3.232v-48.179h-11.683v52.53c0,3.743,0.685,6.547,2.055,8.422
				c1.37,1.869,3.407,2.803,6.107,2.803c2.193,0,4.453-0.669,6.78-2.003c2.332-1.338,4.571-3.285,6.724-5.842v6.938h11.685v-62.849
				h-11.685V237.262z M168.028,188.761c-1.812,0-3.603,0.5-5.376,1.498c-1.769,1.002-3.44,2.456-5.014,4.374v-27.425h-11.799v85.198
				h11.799v-4.831c1.535,1.913,3.199,3.328,4.988,4.247c1.791,0.919,3.827,1.378,6.111,1.378c3.462,0,6.108-1.184,7.939-3.556
				c1.828-2.37,2.745-5.792,2.745-10.26v-34.866c0-5.133-0.975-9.045-2.924-11.73C174.549,190.107,171.725,188.761,168.028,188.761z
				 M167.394,237.674c0,2.004-0.339,3.449-1.012,4.332c-0.674,0.884-1.724,1.324-3.152,1.324c-0.993,0-1.934-0.224-2.827-0.677
				c-0.894-0.449-1.816-1.187-2.765-2.21v-39.165c0.794-0.864,1.595-1.5,2.41-1.914c0.812-0.412,1.635-0.62,2.468-0.62
				c1.584,0,2.796,0.55,3.628,1.651c0.836,1.099,1.252,2.708,1.252,4.827L167.394,237.674L167.394,237.674z M222.607,222.456
				v-16.001c0-5.966-1.435-10.536-4.304-13.716c-2.868-3.18-6.977-4.769-12.324-4.769c-5.228,0-9.494,1.718-12.793,5.151
				c-3.305,3.434-4.956,7.878-4.956,13.334v28.208c0,6.051,1.506,10.804,4.512,14.26c3.006,3.454,7.124,5.184,12.353,5.184
				c5.817,0,10.19-1.632,13.119-4.891c2.928-3.259,4.391-8.111,4.391-14.553v-4.719h-12.024v4.366c0,3.698-0.386,6.091-1.157,7.173
				c-0.773,1.08-2.127,1.621-4.062,1.621c-1.864,0-3.177-0.635-3.949-1.919c-0.772-1.277-1.157-3.57-1.157-6.876v-11.853
				L222.607,222.456L222.607,222.456z M200.258,206.337c0-2.63,0.405-4.514,1.218-5.654c0.809-1.142,2.144-1.71,4.003-1.71
				c1.779,0,3.073,0.569,3.887,1.71c0.81,1.14,1.217,3.025,1.217,5.654v6.364h-10.325V206.337z"/>
			<path fill="#FFFFFF" d="M101.245,168.115H60.858v12.366h13.614v72.83h13.16v-72.83h13.613V168.115z M122.753,238.17
				c-1.095,1.374-2.3,2.503-3.612,3.384c-1.312,0.882-2.397,1.321-3.26,1.321c-1.095,0-1.889-0.332-2.378-0.998
				c-0.489-0.667-0.734-1.744-0.734-3.235v-48.18h-11.683v52.535c0,3.741,0.685,6.548,2.055,8.418
				c1.37,1.871,3.407,2.805,6.107,2.805c2.193,0,4.453-0.668,6.78-2.002c2.332-1.338,4.571-3.287,6.724-5.842v6.936h11.685v-62.85
				h-11.685V238.17z M168.028,189.67c-1.812,0-3.603,0.497-5.376,1.496c-1.769,1.001-3.44,2.459-5.014,4.375v-27.425h-11.799v85.197
				h11.799v-4.83c1.535,1.913,3.199,3.328,4.988,4.249c1.791,0.915,3.827,1.375,6.111,1.375c3.462,0,6.108-1.183,7.939-3.557
				c1.828-2.37,2.745-5.79,2.745-10.258v-34.867c0-5.133-0.975-9.045-2.924-11.726C174.549,191.015,171.725,189.67,168.028,189.67z
				 M167.394,238.584c0,2.002-0.339,3.447-1.012,4.33c-0.674,0.882-1.724,1.323-3.152,1.323c-0.993,0-1.934-0.224-2.827-0.676
				c-0.894-0.45-1.816-1.189-2.765-2.212v-39.164c0.794-0.864,1.595-1.502,2.41-1.916c0.812-0.409,1.635-0.617,2.468-0.617
				c1.584,0,2.796,0.551,3.628,1.651c0.836,1.1,1.252,2.708,1.252,4.826L167.394,238.584L167.394,238.584z M222.607,223.362v-16
				c0-5.965-1.435-10.536-4.304-13.718c-2.868-3.179-6.977-4.768-12.324-4.768c-5.228,0-9.494,1.718-12.793,5.152
				c-3.305,3.435-4.956,7.878-4.956,13.334v28.208c0,6.051,1.506,10.804,4.512,14.26c3.006,3.454,7.124,5.184,12.353,5.184
				c5.817,0,10.19-1.63,13.119-4.891c2.928-3.257,4.391-8.11,4.391-14.553v-4.721h-12.024v4.367c0,3.701-0.386,6.092-1.157,7.172
				c-0.773,1.081-2.127,1.621-4.062,1.621c-1.864,0-3.177-0.635-3.949-1.918c-0.772-1.277-1.157-3.57-1.157-6.876v-11.854
				L222.607,223.362L222.607,223.362z M200.258,207.244c0-2.631,0.405-4.514,1.218-5.654c0.809-1.141,2.144-1.71,4.003-1.71
				c1.779,0,3.073,0.57,3.887,1.71c0.81,1.14,1.217,3.023,1.217,5.654v6.363h-10.325V207.244z"/>
		</g>
	</g>
</g>
<g>
	<path fill="none" d="M206.091,155.065H77.374c-17.481,0-31.652,13.431-31.652,30v53c0,16.569,14.171,30,31.652,30h128.718
		c17.481,0,31.652-13.431,31.652-30v-53C237.743,168.496,223.572,155.065,206.091,155.065z"/>
	<path fill="#FFFFFF" d="M132.655,120.443c1.028,1.165,2.495,1.746,4.405,1.746c1.956,0,3.51-0.594,4.659-1.783
		c1.151-1.189,1.726-2.826,1.726-4.913V73.217c0-1.696-0.589-3.067-1.764-4.109c-1.172-1.043-2.713-1.566-4.622-1.566
		c-1.762,0-3.193,0.523-4.295,1.566c-1.102,1.042-1.651,2.412-1.651,4.109v42.276h0
		C131.115,117.631,131.626,119.279,132.655,120.443z"/>
	<path fill="#FFFFFF" d="M233.232,0.232h-183c-27.614,0-50,22.386-50,50v183c0,27.614,22.386,50,50,50h183c27.614,0,50-22.386,50-50
		v-183C283.232,22.618,260.847,0.232,233.232,0.232z M170.407,56.053h14.434v59.503c0,1.841,0.3,3.171,0.905,3.995
		c0.604,0.824,1.584,1.236,2.938,1.236c1.065,0,2.403-0.546,4.025-1.635c1.619-1.092,3.105-2.484,4.461-4.18V56.053h14.432v77.623
		H197.17v-8.569c-2.659,3.158-5.427,5.563-8.304,7.215c-2.877,1.649-5.671,2.476-8.376,2.476c-3.337,0-5.854-1.153-7.546-3.465
		c-1.692-2.31-2.538-5.778-2.538-10.399V56.053z M137.757,54.091c5.972,0,10.866,1.88,14.68,5.637
		c3.814,3.757,5.723,8.593,5.723,14.51v40.091c0,6.645-1.875,11.857-5.613,15.638c-3.739,3.782-8.89,5.672-15.446,5.672
		c-6.314,0-11.367-1.951-15.153-5.853c-3.789-3.902-5.684-9.152-5.684-15.747v-40.24c0-6.012,1.942-10.798,5.828-14.361
		C125.977,55.873,131.197,54.091,137.757,54.091z M78.862,28.45l10.546,42.061h1.021l10.056-42.061h16.514L98.085,90.014v43.663
		H81.829V91.979L62.492,28.45H78.862z M237.743,238.065c0,16.569-14.171,30-31.652,30H77.374c-17.481,0-31.652-13.431-31.652-30v-53
		c0-16.569,14.171-30,31.652-30h128.718c17.481,0,31.652,13.431,31.652,30V238.065z"/>
	<path fill="#FFFFFF" d="M131.115,73.217c0-1.696,0.549-3.067,1.651-4.109c1.102-1.043,2.533-1.566,4.295-1.566
		c1.909,0,3.449,0.523,4.622,1.566c1.174,1.042,1.764,2.412,1.764,4.109v42.276c0,2.087-0.575,3.724-1.726,4.913
		c-1.149,1.188-2.703,1.783-4.659,1.783c-1.91,0-3.377-0.581-4.405-1.746c-1.029-1.164-1.541-2.812-1.541-4.95h0V73.217z"/>
</g>
</svg>
